<svg width="1200" height="900" viewBox="0 0 1200 900" fill="none" xmlns="http://www.w3.org/2000/svg">
  <rect width="1200" height="900" rx="36" fill="#08111C"/>
  <g opacity="0.4">
    <circle cx="210" cy="180" r="180" fill="#00D4FF"/>
    <circle cx="930" cy="190" r="210" fill="#8B5CF6"/>
    <circle cx="820" cy="680" r="240" fill="#12B981"/>
  </g>
  <g filter="url(#blur)">
    <circle cx="210" cy="180" r="180" fill="#00D4FF"/>
    <circle cx="930" cy="190" r="210" fill="#8B5CF6"/>
    <circle cx="820" cy="680" r="240" fill="#12B981"/>
  </g>
  <rect x="70" y="90" width="1060" height="720" rx="32" fill="rgba(8,17,28,0.6)" stroke="#294055"/>
  <path d="M70 230H1130" stroke="#294055"/>
  <path d="M360 90V810" stroke="#294055"/>
  <path d="M70 470H1130" stroke="#203446" opacity="0.6"/>
  <path d="M740 230V810" stroke="#203446" opacity="0.6"/>
  <rect x="110" y="130" width="210" height="18" rx="9" fill="#1A2A39"/>
  <rect x="110" y="166" width="130" height="10" rx="5" fill="#203446"/>
  <rect x="110" y="270" width="200" height="14" rx="7" fill="#6EE7FF"/>
  <rect x="110" y="302" width="180" height="38" rx="12" fill="#132435" stroke="#2A4357"/>
  <rect x="110" y="356" width="210" height="38" rx="12" fill="#132435" stroke="#2A4357"/>
  <rect x="400" y="130" width="300" height="28" rx="14" fill="#102131"/>
  <rect x="400" y="180" width="300" height="280" rx="20" fill="#0E1C2B" stroke="#284154"/>
  <rect x="430" y="214" width="120" height="10" rx="5" fill="#6EE7FF"/>
  <rect x="430" y="248" width="220" height="14" rx="7" fill="#E8EDF3" opacity="0.85"/>
  <rect x="430" y="278" width="180" height="10" rx="5" fill="#7F93A8"/>
  <rect x="430" y="324" width="230" height="102" rx="16" fill="#132435"/>
  <path d="M455 388L512 346L558 374L602 320L634 346" stroke="#8B5CF6" stroke-width="8" stroke-linecap="round" stroke-linejoin="round"/>
  <circle cx="634" cy="346" r="8" fill="#6EE7FF"/>
  <rect x="770" y="130" width="290" height="160" rx="20" fill="#0E1C2B" stroke="#284154"/>
  <rect x="804" y="168" width="160" height="12" rx="6" fill="#6EE7FF"/>
  <rect x="804" y="200" width="200" height="12" rx="6" fill="#E8EDF3" opacity="0.9"/>
  <rect x="804" y="226" width="180" height="10" rx="5" fill="#7F93A8"/>
  <rect x="770" y="320" width="290" height="190" rx="20" fill="#0E1C2B" stroke="#284154"/>
  <rect x="804" y="356" width="170" height="12" rx="6" fill="#12B981"/>
  <rect x="804" y="388" width="150" height="10" rx="5" fill="#E8EDF3" opacity="0.88"/>
  <rect x="804" y="414" width="120" height="10" rx="5" fill="#7F93A8"/>
  <rect x="804" y="452" width="222" height="26" rx="13" fill="#132435" stroke="#35556D"/>
  <rect x="400" y="510" width="660" height="260" rx="22" fill="#0E1C2B" stroke="#284154"/>
  <rect x="430" y="544" width="190" height="14" rx="7" fill="#6EE7FF"/>
  <rect x="430" y="580" width="570" height="16" rx="8" fill="#E8EDF3" opacity="0.9"/>
  <rect x="430" y="612" width="520" height="10" rx="5" fill="#7F93A8"/>
  <rect x="430" y="656" width="180" height="64" rx="18" fill="#132435" stroke="#35556D"/>
  <rect x="640" y="656" width="180" height="64" rx="18" fill="#132435" stroke="#35556D"/>
  <rect x="850" y="656" width="180" height="64" rx="18" fill="#132435" stroke="#35556D"/>
  <defs>
    <filter id="blur" x="-170" y="-120" width="1450" height="1220" filterUnits="userSpaceOnUse" color-interpolation-filters="sRGB">
      <feGaussianBlur stdDeviation="90"/>
    </filter>
  </defs>
</svg>
